<?xml version="1.0" encoding="UTF-8"?>
<svg width="15px" height="15px" viewBox="0 0 15 15" version="1.1" xmlns="http://www.w3.org/2000/svg">
    <!-- Generator: Sketch 48.2 (47327) - http://www.bohemiancoding.com/sketch -->
    <title>Filter</title>
    <desc>Created with Sketch.</desc>
    <defs></defs>
    <g id="Desktop-просмотр-списка-транзакций" stroke="none" stroke-width="1" fill="none" fill-rule="evenodd"
       transform="translate(-201.000000, -138.000000)" fill-opacity="0.9">
        <g id="Кнопка-фильтр" transform="translate(181.000000, 130.000000)" fill="#0A1E32" fill-rule="nonzero">
            <path d="M20.1203747,9.08974359 L25.3126824,15.9273504 L25.3126824,20.9273504 C25.3126824,21.0769231 25.3981524,21.2051282 25.5049901,21.2905983 L28.1331952,22.9358974 C28.1972977,22.9786325 28.2827678,23 28.3682379,23 C28.4323405,23 28.5178106,22.9786325 28.5819131,22.9358974 C28.7101183,22.8504274 28.7955883,22.7222222 28.7955883,22.5726496 L28.7955883,15.9273504 L33.987896,9.08974359 L34.0092636,9.06837607 C34.1374687,8.85470085 34.1588362,8.57692308 34.0306311,8.36324786 C33.902426,8.14957265 33.6673832,8 33.4323405,8 L20.6759302,8 C20.41952,8 20.1844772,8.12820513 20.0776396,8.36324786 C19.970802,8.5982906 19.970802,8.85470085 20.0990071,9.06837607 C20.0990071,9.06837607 20.0990071,9.06837607 20.1203747,9.08974359 Z M33.0690926,8.85470085 L28.0263576,15.542735 C27.962255,15.6068376 27.9408875,15.7136752 27.9408875,15.7991453 L27.9408875,21.8034188 L26.1673832,20.6923077 L26.1673832,15.7991453 C26.1673832,15.7136752 26.1460157,15.6068376 26.0819131,15.542735 L21.0178106,8.85470085 L33.0690926,8.85470085 Z"
                  id="Filter"></path>
        </g>
    </g>
</svg>